<svg id="logo" data-name="Layer 1" xmlns="http://www.w3.org/2000/svg" xmlns:xlink="http://www.w3.org/1999/xlink" viewBox="0 0 2584 1129.96"><defs><style>.cls-1{fill:none;}.cls-2{clip-path:url(#clip-path);}.cls-3{fill:#f0566d;}.cls-4{fill:#ffae2c;}.cls-5{fill:#02b6b2;}.cls-6{fill:#d0bba9;}.cls-7{font-size:388px;fill:#25000b;font-family:BelleroseLight, Bellerose;}</style><clipPath id="clip-path" transform="translate(33.73 -28.37)"><circle class="cls-1" cx="1255.96" cy="427.66" r="377.04"/></clipPath></defs><title>Jagada Industries_logo_out</title><g class="cls-2"><path class="cls-3" d="M872.63,409.3l40.12,39.82L1008.31,544l115.48,114.61,99.87,99.12c16.23,16.11,32,32.85,48.79,48.43.23.21.44.44.66.65,6.86,6.81,17.47-3.79,10.61-10.6l-40.12-39.82L1148,661.51,1032.56,546.9l-99.87-99.12c-16.23-16.11-32-32.85-48.79-48.43-.23-.21-.44-.43-.66-.65-6.86-6.81-17.47,3.79-10.61,10.6Z" transform="translate(33.73 -28.37)"/><path class="cls-3" d="M1018.93,185V657.29c0,21.71-.75,43.57,0,65.27,0,.31,0,.62,0,.92,0,9.66,15,9.67,15,0V251.21c0-21.71.75-43.57,0-65.27,0-.31,0-.62,0-.93,0-9.65-15-9.67-15,0Z" transform="translate(33.73 -28.37)"/><path class="cls-3" d="M1168.44,218.72l-20.8,46.55L1097.9,376.56l-60.15,134.58L985.58,627.87c-8.42,18.84-17,37.64-25.27,56.53-.11.27-.24.53-.35.8-1.67,3.73-1.05,8,2.69,10.26,3.18,1.91,8.61,1,10.26-2.69l20.8-46.54,49.74-111.29,60.15-134.58,52.17-116.73c8.42-18.84,17-37.64,25.27-56.53l.36-.8c1.66-3.73,1-8-2.69-10.27-3.19-1.9-8.62-1-10.27,2.69Z" transform="translate(33.73 -28.37)"/><path class="cls-3" d="M899.2,241,920,295.47l49.93,130.75L1030.1,583.8l52,136.13c8.41,22,16.64,44.16,25.25,66.12l.35.93c3.41,8.92,17.92,5,14.47-4l-20.8-54.47-49.93-130.75L991.25,440.2l-52-136.14c-8.42-22-16.64-44.16-25.25-66.12-.12-.31-.24-.62-.35-.92-3.41-8.93-17.92-5.06-14.47,4Z" transform="translate(33.73 -28.37)"/><path class="cls-3" d="M1285.11,286.2l-38.22,37.62-91.77,90.34-111,109.26-95.9,94.4c-15.44,15.2-31.54,30-46.44,45.72-.21.22-.44.43-.66.64-6.89,6.79,3.72,17.39,10.61,10.61L950,637.17l91.77-90.34,111-109.26,95.9-94.4c15.44-15.2,31.54-30,46.44-45.71.21-.22.44-.43.66-.65,6.89-6.78-3.72-17.39-10.61-10.61Z" transform="translate(33.73 -28.37)"/><path class="cls-3" d="M870.15,488l49.55,22.46,118.51,53.7,143.28,64.94,124.22,56.29c20,9.06,40,18.27,60,27.2l.88.4c3.71,1.69,8,1,10.26-2.69,1.91-3.2,1-8.59-2.69-10.26l-49.56-22.46-118.5-53.7-143.29-64.93L938.64,502.63c-20-9.07-40-18.28-60-27.21l-.88-.4c-3.72-1.68-8-1-10.26,2.69-1.92,3.2-1,8.59,2.69,10.26Z" transform="translate(33.73 -28.37)"/><path class="cls-3" d="M880.94,557h452.23c20.89,0,41.94.75,62.82,0h.92c9.65,0,9.67-15,0-15H944.67c-20.89,0-41.93-.74-62.82,0h-.91c-9.66,0-9.67,15,0,15Z" transform="translate(33.73 -28.37)"/><path class="cls-3" d="M1368.42,416.27l-46.25,17.86-111,42.89L1077.39,528.7,961.71,573.38c-18.82,7.28-37.72,14.38-56.47,21.82l-.8.31c-3.76,1.45-6.41,5-5.24,9.22,1,3.61,5.42,6.72,9.23,5.24l46.24-17.86,111-42.89,133.77-51.68,115.67-44.68c18.83-7.27,37.72-14.38,56.48-21.82l.79-.31c3.77-1.45,6.41-5.05,5.24-9.22-1-3.61-5.41-6.71-9.22-5.24Z" transform="translate(33.73 -28.37)"/><path class="cls-4" d="M1191.56,131.89l-35.4-85.66-5.1-12.34c-1.54-3.72-5-6.42-9.23-5.23-3.53,1-6.8,5.44-5.24,9.22L1172,123.55l5.09,12.33c1.54,3.73,5,6.43,9.23,5.24,3.53-1,6.8-5.45,5.24-9.23Z" transform="translate(33.73 -28.37)"/><path class="cls-4" d="M1154.06,140.88,1165,62.28l1.58-11.4c.56-4-1-8-5.24-9.22-3.5-1-8.67,1.22-9.23,5.23l-10.91,78.61-1.59,11.39c-.56,4,1,8,5.24,9.23,3.5,1,8.67-1.23,9.23-5.24Z" transform="translate(33.73 -28.37)"/><path class="cls-4" d="M1216.63,106.08l-58.92-46.7-8.58-6.8c-3.2-2.53-7.48-3.06-10.61,0-2.64,2.59-3.17,8.1,0,10.61l58.92,46.7,8.58,6.8c3.2,2.54,7.48,3.06,10.61,0,2.64-2.58,3.17-8.1,0-10.61Z" transform="translate(33.73 -28.37)"/><path class="cls-4" d="M1121.4,134.67l47.06-71.59,6.84-10.41c5.32-8.09-7.66-15.61-13-7.57l-47.06,71.59-6.84,10.41c-5.32,8.09,7.66,15.61,13,7.57Z" transform="translate(33.73 -28.37)"/><path class="cls-4" d="M1229.61,83.41,1153.1,47.52l-10.89-5.11c-8.69-4.07-16.31,8.85-7.57,13l76.51,35.89L1222,96.36c8.69,4.08,16.31-8.85,7.57-13Z" transform="translate(33.73 -28.37)"/><path class="cls-4" d="M1095.13,119.19,1169.57,51l10.65-9.77c7.14-6.54-3.49-17.12-10.6-10.61l-74.44,68.24-10.66,9.76c-7.13,6.54,3.5,17.13,10.61,10.61Z" transform="translate(33.73 -28.37)"/><path class="cls-4" d="M1237.58,53.64H1118.92c-9.65,0-9.66,15,0,15h118.66c9.65,0,9.66-15,0-15Z" transform="translate(33.73 -28.37)"/><path class="cls-5" d="M1375.71,338.81l60.81-60.47,96.49-96,22.2-22.06c6.85-6.82-3.76-17.43-10.61-10.61l-60.81,60.47-96.49,95.95-22.19,22.07c-6.86,6.82,3.75,17.43,10.6,10.61Z" transform="translate(33.73 -28.37)"/><path class="cls-5" d="M1440.79,383.53l33.94-78.76,53.85-125L1541,151.06c1.61-3.75,1.08-8-2.69-10.26-3.15-1.89-8.66-1-10.26,2.69l-33.94,78.76-53.85,125L1427.84,376c-1.61,3.74-1.08,8,2.69,10.26,3.15,1.88,8.66,1,10.26-2.69Z" transform="translate(33.73 -28.37)"/><path class="cls-5" d="M1531.25,392l-.55-85.75-.87-136.08-.2-31.29c-.06-9.65-15.06-9.67-15,0l.55,85.75.87,136.08.2,31.29c.06,9.65,15.06,9.67,15,0Z" transform="translate(33.73 -28.37)"/><path class="cls-5" d="M1611,378.9l-32.06-79.54L1528,173.15l-11.7-29c-1.51-3.74-5-6.42-9.22-5.24-3.56,1-6.77,5.43-5.24,9.22l32.06,79.54,50.88,126.21,11.7,29c1.51,3.74,5,6.42,9.23,5.24,3.55-1,6.76-5.44,5.23-9.23Z" transform="translate(33.73 -28.37)"/><path class="cls-5" d="M1612.22,269.75,1553.75,207,1461,107.48l-21.34-22.9c-6.59-7.07-17.18,3.55-10.6,10.61l58.47,62.73,92.79,99.54,21.34,22.89c6.59,7.08,17.18-3.55,10.6-10.6Z" transform="translate(33.73 -28.37)"/><path class="cls-5" d="M1323.49,264.29l79.59-31.93,126.3-50.66,29-11.65c3.75-1.5,6.42-5,5.24-9.23-1-3.56-5.43-6.76-9.22-5.24l-79.6,31.93-126.29,50.66-29,11.65c-3.74,1.5-6.42,5-5.24,9.23,1,3.56,5.43,6.76,9.23,5.24Z" transform="translate(33.73 -28.37)"/><path class="cls-5" d="M1307.76,182.59l85.75.82,136.07,1.29,31.3.29c9.65.09,9.66-14.91,0-15l-85.76-.81-136.07-1.29-31.29-.3c-9.66-.09-9.66,14.91,0,15Z" transform="translate(33.73 -28.37)"/><path class="cls-5" d="M1326.53,96.36l78.12,35.4,123.94,56.17,28.5,12.92c3.72,1.69,8,1,10.27-2.69,1.91-3.2,1-8.59-2.7-10.26l-78.11-35.4L1362.61,96.33,1334.1,83.41c-3.71-1.68-8-1-10.26,2.69-1.91,3.2-1,8.59,2.69,10.26Z" transform="translate(33.73 -28.37)"/><path class="cls-6" d="M1470.74,564l88.08,88.57,12.41,12.48c6.81,6.86,17.42-3.75,10.6-10.6l-88.07-88.58-12.42-12.48c-6.81-6.85-17.42,3.75-10.6,10.61Z" transform="translate(33.73 -28.37)"/><path class="cls-6" d="M1446.22,601.18l114.72,49.43,16.16,7c3.75,1.61,8,1.08,10.26-2.69,1.89-3.15,1-8.66-2.69-10.26L1470,595.2l-16.17-7c-3.74-1.62-8-1.08-10.26,2.69-1.88,3.15-1,8.66,2.69,10.26Z" transform="translate(33.73 -28.37)"/><path class="cls-6" d="M1443.1,652.56l124.91-.8,17.6-.12c9.65-.06,9.67-15.06,0-15l-124.91.8-17.6.12c-9.65.06-9.67,15.06,0,15Z" transform="translate(33.73 -28.37)"/><path class="cls-6" d="M1451.35,697.33l115.86-46.7,16.32-6.58c3.74-1.51,6.42-5,5.24-9.23-1-3.56-5.43-6.77-9.23-5.24l-115.85,46.7-16.33,6.59c-3.74,1.5-6.42,5-5.23,9.22,1,3.56,5.43,6.77,9.22,5.24Z" transform="translate(33.73 -28.37)"/><path class="cls-6" d="M1487.13,727.19l44.19-42.78,70.9-68.64L1618.5,600c7-6.73-3.66-17.33-10.61-10.61l-44.18,42.78-70.91,68.64-16.28,15.76c-7,6.73,3.67,17.33,10.61,10.61Z" transform="translate(33.73 -28.37)"/><path class="cls-6" d="M1511.85,533.18l46.5,115.93,6.56,16.34c1.5,3.74,5,6.42,9.22,5.24,3.56-1,6.76-5.43,5.24-9.23l-46.5-115.93-6.56-16.34c-1.5-3.74-5-6.42-9.22-5.24-3.56,1-6.76,5.43-5.24,9.23Z" transform="translate(33.73 -28.37)"/><path class="cls-6" d="M1557.73,523.45l-1.19,124.91-.17,17.6c-.09,9.66,14.91,9.66,15,0l1.19-124.91.17-17.6c.09-9.65-14.91-9.66-15,0Z" transform="translate(33.73 -28.37)"/><path class="cls-6" d="M1606.72,532.37l-51.56,113.77-7.27,16c-1.68,3.72-1,8,2.69,10.27,3.2,1.91,8.6,1,10.26-2.69L1612.41,556l7.26-16c1.69-3.72,1-8-2.69-10.26-3.2-1.92-8.59-1-10.26,2.69Z" transform="translate(33.73 -28.37)"/></g></svg>